<svg xmlns="http://www.w3.org/2000/svg" version="1.1" xmlns:xlink="http://www.w3.org/1999/xlink" xmlns:svgjs="http://svgjs.dev/svgjs" width="1920" height="1080" preserveAspectRatio="none" viewBox="0 0 1920 1080"><g mask="url(&quot;#SvgjsMask2230&quot;)" fill="none"><rect width="1920" height="1080" x="0" y="0" fill="url(&quot;#SvgjsLinearGradient2231&quot;)"></rect><path d="M72.95 288.32L137.91 325.82L137.91 400.82L72.95 438.32L8 400.82L8 325.82zM202.86 63.32L267.81 100.82L267.81 175.82L202.86 213.32L137.91 175.82L137.91 100.82zM137.91 400.82L202.86 438.32L202.86 513.32L137.91 550.82L72.95 513.32L72.95 438.32zM332.77 63.32L397.72 100.82L397.72 175.82L332.77 213.32L267.81 175.82L267.81 100.82zM462.68 513.32L527.63 550.82L527.63 625.82L462.68 663.32L397.72 625.82L397.72 550.82zM462.68 738.32L527.63 775.82L527.63 850.82L462.68 888.32L397.72 850.82L397.72 775.82zM592.58 288.32L657.54 325.82L657.54 400.82L592.58 438.32L527.63 400.82L527.63 325.82zM657.54 175.82L722.49 213.32L722.49 288.32L657.54 325.82L592.58 288.32L592.58 213.32zM722.49 738.32L787.45 775.82L787.45 850.82L722.49 888.32L657.54 850.82L657.54 775.82zM657.54 850.82L722.49 888.32L722.49 963.32L657.54 1000.82L592.58 963.32L592.58 888.32zM787.44 175.82L852.4 213.32L852.4 288.32L787.44 325.82L722.49 288.32L722.49 213.32zM852.4 288.32L917.35 325.82L917.35 400.82L852.4 438.32L787.44 400.82L787.44 325.82zM787.44 400.82L852.4 438.32L852.4 513.32L787.44 550.82L722.49 513.32L722.49 438.32zM917.35 -49.18L982.31 -11.68L982.31 63.32L917.35 100.82L852.4 63.32L852.4 -11.68zM982.31 288.32L1047.26 325.82L1047.26 400.82L982.31 438.32L917.35 400.82L917.35 325.82zM917.35 625.82L982.31 663.32L982.31 738.32L917.35 775.82L852.4 738.32L852.4 663.32zM1047.26 -49.18L1112.21 -11.68L1112.21 63.32L1047.26 100.82L982.31 63.32L982.31 -11.68zM1112.21 288.32L1177.17 325.82L1177.17 400.82L1112.21 438.32L1047.26 400.82L1047.26 325.82zM1177.17 1075.82L1242.12 1113.32L1242.12 1188.32L1177.17 1225.82L1112.21 1188.32L1112.21 1113.32zM1307.08 1075.82L1372.03 1113.32L1372.03 1188.32L1307.08 1225.82L1242.12 1188.32L1242.12 1113.32zM1501.94 288.32L1566.89 325.82L1566.89 400.82L1501.94 438.32L1436.98 400.82L1436.98 325.82zM1566.89 -49.18L1631.84 -11.68L1631.84 63.32L1566.89 100.82L1501.94 63.32L1501.94 -11.68zM1631.84 63.32L1696.8 100.82L1696.8 175.82L1631.84 213.32L1566.89 175.82L1566.89 100.82zM1566.89 400.82L1631.84 438.32L1631.84 513.32L1566.89 550.82L1501.94 513.32L1501.94 438.32zM1631.84 513.32L1696.8 550.82L1696.8 625.82L1631.84 663.32L1566.89 625.82L1566.89 550.82zM1566.89 625.82L1631.84 663.32L1631.84 738.32L1566.89 775.82L1501.94 738.32L1501.94 663.32zM1631.84 738.32L1696.8 775.82L1696.8 850.82L1631.84 888.32L1566.89 850.82L1566.89 775.82zM1696.8 625.82L1761.75 663.32L1761.75 738.32L1696.8 775.82L1631.84 738.32L1631.84 663.32zM1696.8 850.82L1761.75 888.32L1761.75 963.32L1696.8 1000.82L1631.84 963.32L1631.84 888.32zM1826.7 400.82L1891.66 438.32L1891.66 513.32L1826.7 550.82L1761.75 513.32L1761.75 438.32zM1826.7 850.82L1891.66 888.32L1891.66 963.32L1826.7 1000.82L1761.75 963.32L1761.75 888.32z" stroke="rgba(81, 43, 197, 1)" stroke-width="2"></path><path d="M65.45 288.32 a7.5 7.5 0 1 0 15 0 a7.5 7.5 0 1 0 -15 0zM130.41 325.82 a7.5 7.5 0 1 0 15 0 a7.5 7.5 0 1 0 -15 0zM130.41 400.82 a7.5 7.5 0 1 0 15 0 a7.5 7.5 0 1 0 -15 0zM65.45 438.32 a7.5 7.5 0 1 0 15 0 a7.5 7.5 0 1 0 -15 0zM0.5 400.82 a7.5 7.5 0 1 0 15 0 a7.5 7.5 0 1 0 -15 0zM0.5 325.82 a7.5 7.5 0 1 0 15 0 a7.5 7.5 0 1 0 -15 0zM195.36 63.32 a7.5 7.5 0 1 0 15 0 a7.5 7.5 0 1 0 -15 0zM260.31 100.82 a7.5 7.5 0 1 0 15 0 a7.5 7.5 0 1 0 -15 0zM260.31 175.82 a7.5 7.5 0 1 0 15 0 a7.5 7.5 0 1 0 -15 0zM195.36 213.32 a7.5 7.5 0 1 0 15 0 a7.5 7.5 0 1 0 -15 0zM130.41 175.82 a7.5 7.5 0 1 0 15 0 a7.5 7.5 0 1 0 -15 0zM130.41 100.82 a7.5 7.5 0 1 0 15 0 a7.5 7.5 0 1 0 -15 0zM195.36 438.32 a7.5 7.5 0 1 0 15 0 a7.5 7.5 0 1 0 -15 0zM195.36 513.32 a7.5 7.5 0 1 0 15 0 a7.5 7.5 0 1 0 -15 0zM130.41 550.82 a7.5 7.5 0 1 0 15 0 a7.5 7.5 0 1 0 -15 0zM65.45 513.32 a7.5 7.5 0 1 0 15 0 a7.5 7.5 0 1 0 -15 0zM325.27 63.32 a7.5 7.5 0 1 0 15 0 a7.5 7.5 0 1 0 -15 0zM390.22 100.82 a7.5 7.5 0 1 0 15 0 a7.5 7.5 0 1 0 -15 0zM390.22 175.82 a7.5 7.5 0 1 0 15 0 a7.5 7.5 0 1 0 -15 0zM325.27 213.32 a7.5 7.5 0 1 0 15 0 a7.5 7.5 0 1 0 -15 0zM455.18 513.32 a7.5 7.5 0 1 0 15 0 a7.5 7.5 0 1 0 -15 0zM520.13 550.82 a7.5 7.5 0 1 0 15 0 a7.5 7.5 0 1 0 -15 0zM520.13 625.82 a7.5 7.5 0 1 0 15 0 a7.5 7.5 0 1 0 -15 0zM455.18 663.32 a7.5 7.5 0 1 0 15 0 a7.5 7.5 0 1 0 -15 0zM390.22 625.82 a7.5 7.5 0 1 0 15 0 a7.5 7.5 0 1 0 -15 0zM390.22 550.82 a7.5 7.5 0 1 0 15 0 a7.5 7.5 0 1 0 -15 0zM455.18 738.32 a7.5 7.5 0 1 0 15 0 a7.5 7.5 0 1 0 -15 0zM520.13 775.82 a7.5 7.5 0 1 0 15 0 a7.5 7.5 0 1 0 -15 0zM520.13 850.82 a7.5 7.5 0 1 0 15 0 a7.5 7.5 0 1 0 -15 0zM455.18 888.32 a7.5 7.5 0 1 0 15 0 a7.5 7.5 0 1 0 -15 0zM390.22 850.82 a7.5 7.5 0 1 0 15 0 a7.5 7.5 0 1 0 -15 0zM390.22 775.82 a7.5 7.5 0 1 0 15 0 a7.5 7.5 0 1 0 -15 0zM585.08 288.32 a7.5 7.5 0 1 0 15 0 a7.5 7.5 0 1 0 -15 0zM650.04 325.82 a7.5 7.5 0 1 0 15 0 a7.5 7.5 0 1 0 -15 0zM650.04 400.82 a7.5 7.5 0 1 0 15 0 a7.5 7.5 0 1 0 -15 0zM585.08 438.32 a7.5 7.5 0 1 0 15 0 a7.5 7.5 0 1 0 -15 0zM520.13 400.82 a7.5 7.5 0 1 0 15 0 a7.5 7.5 0 1 0 -15 0zM520.13 325.82 a7.5 7.5 0 1 0 15 0 a7.5 7.5 0 1 0 -15 0zM650.04 175.82 a7.5 7.5 0 1 0 15 0 a7.5 7.5 0 1 0 -15 0zM714.99 213.32 a7.5 7.5 0 1 0 15 0 a7.5 7.5 0 1 0 -15 0zM714.99 288.32 a7.5 7.5 0 1 0 15 0 a7.5 7.5 0 1 0 -15 0zM585.08 213.32 a7.5 7.5 0 1 0 15 0 a7.5 7.5 0 1 0 -15 0zM714.99 738.32 a7.5 7.5 0 1 0 15 0 a7.5 7.5 0 1 0 -15 0zM779.95 775.82 a7.5 7.5 0 1 0 15 0 a7.5 7.5 0 1 0 -15 0zM779.95 850.82 a7.5 7.5 0 1 0 15 0 a7.5 7.5 0 1 0 -15 0zM714.99 888.32 a7.5 7.5 0 1 0 15 0 a7.5 7.5 0 1 0 -15 0zM650.04 850.82 a7.5 7.5 0 1 0 15 0 a7.5 7.5 0 1 0 -15 0zM650.04 775.82 a7.5 7.5 0 1 0 15 0 a7.5 7.5 0 1 0 -15 0zM714.99 963.32 a7.5 7.5 0 1 0 15 0 a7.5 7.5 0 1 0 -15 0zM650.04 1000.82 a7.5 7.5 0 1 0 15 0 a7.5 7.5 0 1 0 -15 0zM585.08 963.32 a7.5 7.5 0 1 0 15 0 a7.5 7.5 0 1 0 -15 0zM585.08 888.32 a7.5 7.5 0 1 0 15 0 a7.5 7.5 0 1 0 -15 0zM779.94 175.82 a7.5 7.5 0 1 0 15 0 a7.5 7.5 0 1 0 -15 0zM844.9 213.32 a7.5 7.5 0 1 0 15 0 a7.5 7.5 0 1 0 -15 0zM844.9 288.32 a7.5 7.5 0 1 0 15 0 a7.5 7.5 0 1 0 -15 0zM779.94 325.82 a7.5 7.5 0 1 0 15 0 a7.5 7.5 0 1 0 -15 0zM909.85 325.82 a7.5 7.5 0 1 0 15 0 a7.5 7.5 0 1 0 -15 0zM909.85 400.82 a7.5 7.5 0 1 0 15 0 a7.5 7.5 0 1 0 -15 0zM844.9 438.32 a7.5 7.5 0 1 0 15 0 a7.5 7.5 0 1 0 -15 0zM779.94 400.82 a7.5 7.5 0 1 0 15 0 a7.5 7.5 0 1 0 -15 0zM844.9 513.32 a7.5 7.5 0 1 0 15 0 a7.5 7.5 0 1 0 -15 0zM779.94 550.82 a7.5 7.5 0 1 0 15 0 a7.5 7.5 0 1 0 -15 0zM714.99 513.32 a7.5 7.5 0 1 0 15 0 a7.5 7.5 0 1 0 -15 0zM714.99 438.32 a7.5 7.5 0 1 0 15 0 a7.5 7.5 0 1 0 -15 0zM909.85 -49.18 a7.5 7.5 0 1 0 15 0 a7.5 7.5 0 1 0 -15 0zM974.81 -11.68 a7.5 7.5 0 1 0 15 0 a7.5 7.5 0 1 0 -15 0zM974.81 63.32 a7.5 7.5 0 1 0 15 0 a7.5 7.5 0 1 0 -15 0zM909.85 100.82 a7.5 7.5 0 1 0 15 0 a7.5 7.5 0 1 0 -15 0zM844.9 63.32 a7.5 7.5 0 1 0 15 0 a7.5 7.5 0 1 0 -15 0zM844.9 -11.68 a7.5 7.5 0 1 0 15 0 a7.5 7.5 0 1 0 -15 0zM974.81 288.32 a7.5 7.5 0 1 0 15 0 a7.5 7.5 0 1 0 -15 0zM1039.76 325.82 a7.5 7.5 0 1 0 15 0 a7.5 7.5 0 1 0 -15 0zM1039.76 400.82 a7.5 7.5 0 1 0 15 0 a7.5 7.5 0 1 0 -15 0zM974.81 438.32 a7.5 7.5 0 1 0 15 0 a7.5 7.5 0 1 0 -15 0zM909.85 625.82 a7.5 7.5 0 1 0 15 0 a7.5 7.5 0 1 0 -15 0zM974.81 663.32 a7.5 7.5 0 1 0 15 0 a7.5 7.5 0 1 0 -15 0zM974.81 738.32 a7.5 7.5 0 1 0 15 0 a7.5 7.5 0 1 0 -15 0zM909.85 775.82 a7.5 7.5 0 1 0 15 0 a7.5 7.5 0 1 0 -15 0zM844.9 738.32 a7.5 7.5 0 1 0 15 0 a7.5 7.5 0 1 0 -15 0zM844.9 663.32 a7.5 7.5 0 1 0 15 0 a7.5 7.5 0 1 0 -15 0zM1039.76 -49.18 a7.5 7.5 0 1 0 15 0 a7.5 7.5 0 1 0 -15 0zM1104.71 -11.68 a7.5 7.5 0 1 0 15 0 a7.5 7.5 0 1 0 -15 0zM1104.71 63.32 a7.5 7.5 0 1 0 15 0 a7.5 7.5 0 1 0 -15 0zM1039.76 100.82 a7.5 7.5 0 1 0 15 0 a7.5 7.5 0 1 0 -15 0zM1104.71 288.32 a7.5 7.5 0 1 0 15 0 a7.5 7.5 0 1 0 -15 0zM1169.67 325.82 a7.5 7.5 0 1 0 15 0 a7.5 7.5 0 1 0 -15 0zM1169.67 400.82 a7.5 7.5 0 1 0 15 0 a7.5 7.5 0 1 0 -15 0zM1104.71 438.32 a7.5 7.5 0 1 0 15 0 a7.5 7.5 0 1 0 -15 0zM1169.67 1075.82 a7.5 7.5 0 1 0 15 0 a7.5 7.5 0 1 0 -15 0zM1234.62 1113.32 a7.5 7.5 0 1 0 15 0 a7.5 7.5 0 1 0 -15 0zM1234.62 1188.32 a7.5 7.5 0 1 0 15 0 a7.5 7.5 0 1 0 -15 0zM1169.67 1225.82 a7.5 7.5 0 1 0 15 0 a7.5 7.5 0 1 0 -15 0zM1104.71 1188.32 a7.5 7.5 0 1 0 15 0 a7.5 7.5 0 1 0 -15 0zM1104.71 1113.32 a7.5 7.5 0 1 0 15 0 a7.5 7.5 0 1 0 -15 0zM1299.58 1075.82 a7.5 7.5 0 1 0 15 0 a7.5 7.5 0 1 0 -15 0zM1364.53 1113.32 a7.5 7.5 0 1 0 15 0 a7.5 7.5 0 1 0 -15 0zM1364.53 1188.32 a7.5 7.5 0 1 0 15 0 a7.5 7.5 0 1 0 -15 0zM1299.58 1225.82 a7.5 7.5 0 1 0 15 0 a7.5 7.5 0 1 0 -15 0zM1494.44 288.32 a7.5 7.5 0 1 0 15 0 a7.5 7.5 0 1 0 -15 0zM1559.39 325.82 a7.5 7.5 0 1 0 15 0 a7.5 7.5 0 1 0 -15 0zM1559.39 400.82 a7.5 7.5 0 1 0 15 0 a7.5 7.5 0 1 0 -15 0zM1494.44 438.32 a7.5 7.5 0 1 0 15 0 a7.5 7.5 0 1 0 -15 0zM1429.48 400.82 a7.5 7.5 0 1 0 15 0 a7.5 7.5 0 1 0 -15 0zM1429.48 325.82 a7.5 7.5 0 1 0 15 0 a7.5 7.5 0 1 0 -15 0zM1559.39 -49.18 a7.5 7.5 0 1 0 15 0 a7.5 7.5 0 1 0 -15 0zM1624.34 -11.68 a7.5 7.5 0 1 0 15 0 a7.5 7.5 0 1 0 -15 0zM1624.34 63.32 a7.5 7.5 0 1 0 15 0 a7.5 7.5 0 1 0 -15 0zM1559.39 100.82 a7.5 7.5 0 1 0 15 0 a7.5 7.5 0 1 0 -15 0zM1494.44 63.32 a7.5 7.5 0 1 0 15 0 a7.5 7.5 0 1 0 -15 0zM1494.44 -11.68 a7.5 7.5 0 1 0 15 0 a7.5 7.5 0 1 0 -15 0zM1689.3 100.82 a7.5 7.5 0 1 0 15 0 a7.5 7.5 0 1 0 -15 0zM1689.3 175.82 a7.5 7.5 0 1 0 15 0 a7.5 7.5 0 1 0 -15 0zM1624.34 213.32 a7.5 7.5 0 1 0 15 0 a7.5 7.5 0 1 0 -15 0zM1559.39 175.82 a7.5 7.5 0 1 0 15 0 a7.5 7.5 0 1 0 -15 0zM1624.34 438.32 a7.5 7.5 0 1 0 15 0 a7.5 7.5 0 1 0 -15 0zM1624.34 513.32 a7.5 7.5 0 1 0 15 0 a7.5 7.5 0 1 0 -15 0zM1559.39 550.82 a7.5 7.5 0 1 0 15 0 a7.5 7.5 0 1 0 -15 0zM1494.44 513.32 a7.5 7.5 0 1 0 15 0 a7.5 7.5 0 1 0 -15 0zM1689.3 550.82 a7.5 7.5 0 1 0 15 0 a7.5 7.5 0 1 0 -15 0zM1689.3 625.82 a7.5 7.5 0 1 0 15 0 a7.5 7.5 0 1 0 -15 0zM1624.34 663.32 a7.5 7.5 0 1 0 15 0 a7.5 7.5 0 1 0 -15 0zM1559.39 625.82 a7.5 7.5 0 1 0 15 0 a7.5 7.5 0 1 0 -15 0zM1624.34 738.32 a7.5 7.5 0 1 0 15 0 a7.5 7.5 0 1 0 -15 0zM1559.39 775.82 a7.5 7.5 0 1 0 15 0 a7.5 7.5 0 1 0 -15 0zM1494.44 738.32 a7.5 7.5 0 1 0 15 0 a7.5 7.5 0 1 0 -15 0zM1494.44 663.32 a7.5 7.5 0 1 0 15 0 a7.5 7.5 0 1 0 -15 0zM1689.3 775.82 a7.5 7.5 0 1 0 15 0 a7.5 7.5 0 1 0 -15 0zM1689.3 850.82 a7.5 7.5 0 1 0 15 0 a7.5 7.5 0 1 0 -15 0zM1624.34 888.32 a7.5 7.5 0 1 0 15 0 a7.5 7.5 0 1 0 -15 0zM1559.39 850.82 a7.5 7.5 0 1 0 15 0 a7.5 7.5 0 1 0 -15 0zM1754.25 663.32 a7.5 7.5 0 1 0 15 0 a7.5 7.5 0 1 0 -15 0zM1754.25 738.32 a7.5 7.5 0 1 0 15 0 a7.5 7.5 0 1 0 -15 0zM1754.25 888.32 a7.5 7.5 0 1 0 15 0 a7.5 7.5 0 1 0 -15 0zM1754.25 963.32 a7.5 7.5 0 1 0 15 0 a7.5 7.5 0 1 0 -15 0zM1689.3 1000.82 a7.5 7.5 0 1 0 15 0 a7.5 7.5 0 1 0 -15 0zM1624.34 963.32 a7.5 7.5 0 1 0 15 0 a7.5 7.5 0 1 0 -15 0zM1819.2 400.82 a7.5 7.5 0 1 0 15 0 a7.5 7.5 0 1 0 -15 0zM1884.16 438.32 a7.5 7.5 0 1 0 15 0 a7.5 7.5 0 1 0 -15 0zM1884.16 513.32 a7.5 7.5 0 1 0 15 0 a7.5 7.5 0 1 0 -15 0zM1819.2 550.82 a7.5 7.5 0 1 0 15 0 a7.5 7.5 0 1 0 -15 0zM1754.25 513.32 a7.5 7.5 0 1 0 15 0 a7.5 7.5 0 1 0 -15 0zM1754.25 438.32 a7.5 7.5 0 1 0 15 0 a7.5 7.5 0 1 0 -15 0zM1819.2 850.82 a7.5 7.5 0 1 0 15 0 a7.5 7.5 0 1 0 -15 0zM1884.16 888.32 a7.5 7.5 0 1 0 15 0 a7.5 7.5 0 1 0 -15 0zM1884.16 963.32 a7.5 7.5 0 1 0 15 0 a7.5 7.5 0 1 0 -15 0zM1819.2 1000.82 a7.5 7.5 0 1 0 15 0 a7.5 7.5 0 1 0 -15 0z" fill="rgba(81, 43, 197, 1)"></path><path d="M105.41 424.83L160.83 456.83L160.83 520.83L105.41 552.83L49.98 520.83L49.98 456.83zM160.83 712.83L216.26 744.83L216.26 808.83L160.83 840.83L105.41 808.83L105.41 744.83zM271.69 520.83L327.12 552.83L327.12 616.83L271.69 648.83L216.26 616.83L216.26 552.83zM382.54 -55.17L437.97 -23.17L437.97 40.83L382.54 72.83L327.12 40.83L327.12 -23.17zM437.97 40.83L493.4 72.83L493.4 136.83L437.97 168.83L382.54 136.83L382.54 72.83zM493.4 520.83L548.82 552.83L548.82 616.83L493.4 648.83L437.97 616.83L437.97 552.83zM659.68 424.83L715.11 456.83L715.11 520.83L659.68 552.83L604.25 520.83L604.25 456.83zM604.25 904.83L659.68 936.83L659.68 1000.83L604.25 1032.83L548.82 1000.83L548.82 936.83zM770.53 616.83L825.96 648.83L825.96 712.83L770.53 744.83L715.11 712.83L715.11 648.83zM825.96 -55.17L881.39 -23.17L881.39 40.83L825.96 72.83L770.53 40.83L770.53 -23.17zM881.39 40.83L936.82 72.83L936.82 136.83L881.39 168.83L825.96 136.83L825.96 72.83zM825.96 136.83L881.39 168.83L881.39 232.83L825.96 264.83L770.53 232.83L770.53 168.83zM881.39 808.83L936.82 840.83L936.82 904.83L881.39 936.83L825.96 904.83L825.96 840.83zM992.24 232.83L1047.67 264.83L1047.67 328.83L992.24 360.83L936.82 328.83L936.82 264.83zM992.24 424.83L1047.67 456.83L1047.67 520.83L992.24 552.83L936.82 520.83L936.82 456.83zM936.82 520.83L992.24 552.83L992.24 616.83L936.82 648.83L881.39 616.83L881.39 552.83zM992.24 808.83L1047.67 840.83L1047.67 904.83L992.24 936.83L936.82 904.83L936.82 840.83zM992.24 1000.83L1047.67 1032.83L1047.67 1096.83L992.24 1128.83L936.82 1096.83L936.82 1032.83zM1103.1 40.83L1158.52 72.83L1158.52 136.83L1103.1 168.83L1047.67 136.83L1047.67 72.83zM1047.67 136.83L1103.1 168.83L1103.1 232.83L1047.67 264.83L992.24 232.83L992.24 168.83zM1103.1 232.83L1158.52 264.83L1158.52 328.83L1103.1 360.83L1047.67 328.83L1047.67 264.83zM1103.1 424.83L1158.52 456.83L1158.52 520.83L1103.1 552.83L1047.67 520.83L1047.67 456.83zM1047.67 520.83L1103.1 552.83L1103.1 616.83L1047.67 648.83L992.24 616.83L992.24 552.83zM1103.1 808.83L1158.52 840.83L1158.52 904.83L1103.1 936.83L1047.67 904.83L1047.67 840.83zM1158.52 328.83L1213.95 360.83L1213.95 424.83L1158.52 456.83L1103.1 424.83L1103.1 360.83zM1213.95 424.83L1269.38 456.83L1269.38 520.83L1213.95 552.83L1158.52 520.83L1158.52 456.83zM1213.95 808.83L1269.38 840.83L1269.38 904.83L1213.95 936.83L1158.52 904.83L1158.52 840.83zM1213.95 1000.83L1269.38 1032.83L1269.38 1096.83L1213.95 1128.83L1158.52 1096.83L1158.52 1032.83zM1269.38 -55.17L1324.81 -23.17L1324.81 40.83L1269.38 72.83L1213.95 40.83L1213.95 -23.17zM1269.38 712.83L1324.81 744.83L1324.81 808.83L1269.38 840.83L1213.95 808.83L1213.95 744.83zM1380.23 712.83L1435.66 744.83L1435.66 808.83L1380.23 840.83L1324.81 808.83L1324.81 744.83zM1546.51 424.83L1601.94 456.83L1601.94 520.83L1546.51 552.83L1491.09 520.83L1491.09 456.83zM1491.09 520.83L1546.51 552.83L1546.51 616.83L1491.09 648.83L1435.66 616.83L1435.66 552.83zM1601.94 136.83L1657.37 168.83L1657.37 232.83L1601.94 264.83L1546.51 232.83L1546.51 168.83zM1601.94 712.83L1657.37 744.83L1657.37 808.83L1601.94 840.83L1546.51 808.83L1546.51 744.83zM1601.94 904.83L1657.37 936.83L1657.37 1000.83L1601.94 1032.83L1546.51 1000.83L1546.51 936.83zM1768.22 424.83L1823.65 456.83L1823.65 520.83L1768.22 552.83L1712.8 520.83L1712.8 456.83zM1712.8 520.83L1768.22 552.83L1768.22 616.83L1712.8 648.83L1657.37 616.83L1657.37 552.83zM1768.22 616.83L1823.65 648.83L1823.65 712.83L1768.22 744.83L1712.8 712.83L1712.8 648.83zM1712.8 712.83L1768.22 744.83L1768.22 808.83L1712.8 840.83L1657.37 808.83L1657.37 744.83zM1712.8 904.83L1768.22 936.83L1768.22 1000.83L1712.8 1032.83L1657.37 1000.83L1657.37 936.83zM1768.22 1000.83L1823.65 1032.83L1823.65 1096.83L1768.22 1128.83L1712.8 1096.83L1712.8 1032.83zM1879.08 40.83L1934.5 72.83L1934.5 136.83L1879.08 168.83L1823.65 136.83L1823.65 72.83zM1879.08 808.83L1934.5 840.83L1934.5 904.83L1879.08 936.83L1823.65 904.83L1823.65 840.83zM1989.93 40.83L2045.36 72.83L2045.36 136.83L1989.93 168.83L1934.5 136.83L1934.5 72.83zM1989.93 808.83L2045.36 840.83L2045.36 904.83L1989.93 936.83L1934.5 904.83L1934.5 840.83zM1989.93 1000.83L2045.36 1032.83L2045.36 1096.83L1989.93 1128.83L1934.5 1096.83L1934.5 1032.83z" stroke="rgba(106, 6, 156, 0.93)" stroke-width="2"></path></g><defs><mask id="SvgjsMask2230"><rect width="1920" height="1080" fill="#ffffff"></rect></mask><linearGradient x1="10.94%" y1="-19.44%" x2="89.06%" y2="119.44%" gradientUnits="userSpaceOnUse" id="SvgjsLinearGradient2231"><stop stop-color="rgba(59, 44, 82, 1)" offset="0"></stop><stop stop-color="rgba(17, 6, 36, 1)" offset="1"></stop></linearGradient></defs></svg>