<svg id="visual" viewBox="0 0 960 540" width="960" height="540" xmlns="http://www.w3.org/2000/svg" xmlns:xlink="http://www.w3.org/1999/xlink" version="1.1"><rect width="960" height="540" fill="#0f0717"></rect><g><g transform="translate(589 307)"><path d="M0 -53.1L46 -26.6L46 26.6L0 53.1L-46 26.6L-46 -26.6Z" fill="#7129a6"></path></g><g transform="translate(709 141)"><path d="M0 -20L17.3 -10L17.3 10L0 20L-17.3 10L-17.3 -10Z" fill="#7129a6"></path></g><g transform="translate(439 86)"><path d="M0 -48L41.6 -24L41.6 24L0 48L-41.6 24L-41.6 -24Z" fill="#7129a6"></path></g><g transform="translate(475 310)"><path d="M0 -33L28.6 -16.5L28.6 16.5L0 33L-28.6 16.5L-28.6 -16.5Z" fill="#7129a6"></path></g><g transform="translate(812 288)"><path d="M0 -52L45 -26L45 26L0 52L-45 26L-45 -26Z" fill="#7129a6"></path></g><g transform="translate(227 172)"><path d="M0 -26L22.5 -13L22.5 13L0 26L-22.5 13L-22.5 -13Z" fill="#7129a6"></path></g><g transform="translate(899 525)"><path d="M0 -47L40.7 -23.5L40.7 23.5L0 47L-40.7 23.5L-40.7 -23.5Z" fill="#7129a6"></path></g><g transform="translate(241 443)"><path d="M0 -25L21.7 -12.5L21.7 12.5L0 25L-21.7 12.5L-21.7 -12.5Z" fill="#7129a6"></path></g><g transform="translate(329 235)"><path d="M0 -29L25.1 -14.5L25.1 14.5L0 29L-25.1 14.5L-25.1 -14.5Z" fill="#7129a6"></path></g><g transform="translate(126 375)"><path d="M0 -23L19.9 -11.5L19.9 11.5L0 23L-19.9 11.5L-19.9 -11.5Z" fill="#7129a6"></path></g><g transform="translate(689 435)"><path d="M0 -34L29.4 -17L29.4 17L0 34L-29.4 17L-29.4 -17Z" fill="#7129a6"></path></g><g transform="translate(695 278)"><path d="M0 -25L21.7 -12.5L21.7 12.5L0 25L-21.7 12.5L-21.7 -12.5Z" fill="#7129a6"></path></g><g transform="translate(907 344)"><path d="M0 -35L30.3 -17.5L30.3 17.5L0 35L-30.3 17.5L-30.3 -17.5Z" fill="#7129a6"></path></g><g transform="translate(100 120)"><path d="M0 -23L19.9 -11.5L19.9 11.5L0 23L-19.9 11.5L-19.9 -11.5Z" fill="#7129a6"></path></g><g transform="translate(366 453)"><path d="M0 -41L35.5 -20.5L35.5 20.5L0 41L-35.5 20.5L-35.5 -20.5Z" fill="#7129a6"></path></g></g></svg>